<svg xmlns="http://www.w3.org/2000/svg" xmlns:xlink="http://www.w3.org/1999/xlink" width="1920" zoomAndPan="magnify" viewBox="0 0 1440 809.999993" height="1080" preserveAspectRatio="xMidYMid meet" version="1.0"><defs><clipPath id="9a07a77fa1"><path d="M 0 6.300781 L 1440 6.300781 L 1440 803.550781 L 0 803.550781 Z M 0 6.300781 " clip-rule="nonzero"/></clipPath></defs><g clip-path="url(#9a07a77fa1)"><path fill="#20e5f6" d="M 562.867188 6.421875 L 640.261719 51.078125 L 717.625 95.765625 L 717.625 274.425781 L 644.035156 316.890625 L 842 409.523438 L 842 361.910156 L 886.664062 336.128906 L 931.328125 310.34375 L 976.023438 336.128906 L 1020.6875 361.910156 L 1020.6875 409.886719 L 1167.164062 409.886719 L 1167.164062 320.054688 L 1235.335938 280.695312 L 1303.503906 241.367188 L 1371.675781 280.695312 L 1439.84375 320.054688 L 1439.84375 477.464844 L 1371.675781 516.828125 L 1303.503906 556.15625 L 1235.335938 516.828125 L 1167.164062 477.464844 L 1167.164062 417.101562 L 1020.6875 417.101562 L 1020.6875 465.078125 L 979.25 489.003906 L 1015.605469 615.546875 L 1058.472656 590.828125 L 1104.539062 617.402344 L 1150.601562 644.007812 L 1150.601562 750.371094 L 1104.539062 776.945312 L 1058.472656 803.519531 L 966.339844 750.371094 L 966.339844 644.007812 L 1009.179688 619.261719 L 972.796875 492.71875 L 931.328125 516.644531 L 886.664062 490.859375 L 842 465.078125 L 842 417.464844 L 636.457031 321.273438 L 562.867188 363.769531 L 488.609375 320.878906 L 421.898438 436.402344 L 453.257812 454.484375 L 453.257812 543.828125 L 414.5625 566.140625 L 375.863281 588.484375 L 337.167969 566.140625 L 298.46875 543.828125 L 298.46875 514.96875 L 147.394531 544.011719 L 147.394531 585.898438 L 73.714844 628.453125 L 0.0351562 585.898438 L 0.0351562 500.8125 L 36.875 479.535156 L 73.714844 458.289062 L 110.554688 479.535156 L 147.394531 500.8125 L 147.394531 536.703125 L 298.46875 507.632812 L 298.46875 454.484375 L 333.695312 434.148438 L 215.808594 354.941406 L 154.761719 390.160156 L 90.308594 352.933594 L 25.824219 315.703125 L 25.824219 166.816406 L 90.308594 129.617188 L 154.761719 92.355469 L 219.25 129.617188 L 283.734375 166.816406 L 283.734375 315.703125 L 222.71875 350.921875 L 340.636719 430.160156 L 375.863281 409.824219 L 414.5625 432.140625 L 415.65625 432.777344 L 482.367188 317.285156 L 408.105469 274.425781 L 408.105469 95.765625 L 485.472656 51.078125 Z M 562.867188 6.421875 " fill-opacity="1" fill-rule="evenodd"/></g></svg>